<svg viewBox="0 0 526 593">
<title>Erol Main Icon</title>
  <defs>
    <style>
      .cls-1 {
        fill: #0a0603;
      }

      .cls-2 {
        fill: #f4d3d3;
      }

      .cls-3 {
        fill: #dbc0b6;
      }

      .cls-4 {
        fill: #e2cb9c;
      }

      .cls-5 {
        fill: #a4a3a8;
      }

      .cls-6 {
        fill: #fff;
      }

      .cls-7 {
        fill: #060606;
      }

      .cls-8 {
        fill: #040404;
      }

      .cls-9 {
        fill: #f7f7f7;
      }

      .cls-10 {
        fill: #f8f8f8;
      }

      .cls-11 {
        fill: #f5f5f5;
      }

      .cls-12 {
        fill: #f6f6f6;
      }

      .cls-13 {
        fill: #030303;
      }

      .cls-14 {
        fill: #050505;
      }

      .cls-15 {
        fill: #080808;
      }

      .cls-16 {
        fill: #0a0a0a;
      }

      .cls-17 {
        fill: #400709;
      }

      .cls-18 {
        fill: #804a0f;
      }

      .cls-19 {
        fill: none;
        stroke: #000;
        stroke-width: 4px;
      }
    </style>
  </defs>
  <g id="body">
    <path class="cls-1" d="M80,466c0-53.57,82.38-97,184-97s184,43.43,184,97" transform="translate(-4 -25)"/>
    <rect class="cls-2" x="219.5" y="300" width="77" height="61" rx="22"/>
    <rect class="cls-3" x="219.5" y="286" width="77" height="61" rx="30.5"/>
    <rect class="cls-1" x="76" y="441" width="368" height="129"/>
    <rect class="cls-4" y="562" width="526" height="31"/>
  </g>
  <g id="laptop">
    <g>
      <rect class="cls-5" x="98.5" y="376" width="318.8" height="201.24" rx="10"/>
      <path class="cls-6" d="M279.6,504.63c0-10.65,4.11-18.1,10.93-18.1.25,0-7.83-6.06-7.59-6-14.08-1-14.16,7.64-27.09,0-11.92-7-23.84,6.7-23.84,23.65s15.16,30.69,33.86,30.69a35.27,35.27,0,0,0,25.92-11C285,523.74,279.6,515.18,279.6,504.63Z" transform="translate(-4 -25)"/>
      <ellipse class="cls-6" cx="267.13" cy="468.97" rx="10.21" ry="6.84" transform="translate(-270.02 360.09) rotate(-51.39)"/>
    </g>
  </g>
  <g id="mainFace">
    <ellipse class="cls-2" cx="256" cy="197" rx="128" ry="137"/>
  </g>
  <g id="shade">
    <g>
      <path d="M360.42,248.22c-20.49,8.48-44.9,10.11-64.5-1.51-.21-2.91-2.92-2.57-4.62-3.54-7.16-5-10.47-12.88-14.49-20.15-3.42-6.16-5.54-12.92-8.26-19.4-2-4.73-3.49-5.62-8.85-5.54-5.52.09-6.57.81-8.49,5.89-3.8,10.06-7.89,19.94-13.62,29.14-14.17,23.24-44.44,24.31-68.07,17.63-10.58-2.83-16.88-9.58-20.29-19.68-3.27-9.7-5.6-19.65-8.09-29.56-.95-3.78-2.15-7.42-6.43-8.78-3.49-2.29-2-11-3.34-15.08-.39-3.12,2.1-3.25,4.08-3.62,35.18-6.79,71.64-2.12,106,6.82,13.71,3.72,26.76,2.52,40.08-1,24.67-5.82,50.38-8.16,75.7-7.88,5.93,1.14,35.6-1.14,33.17,7.35-1.94,24.09-5.47,6.37-9.74,23.53-4.16,13.77-5.55,30-15.5,41C362.47,244.25,363,247.8,360.42,248.22Z" transform="translate(-4 -25)"/>
      <path class="cls-7" d="M291.3,243.17c3.2-1,8.56-.55,4.62,3.54A11.11,11.11,0,0,1,291.3,243.17Z" transform="translate(-4 -25)"/>
      <path class="cls-8" d="M362.1,246.68c.92-1.29-1.73-2.41-.27-3.56,1.22-1,2.27.21,3.31.77C364.31,244.43,362.93,247.47,362.1,246.68Z" transform="translate(-4 -25)"/>
      <path class="cls-9" d="M362.1,246.68c.89.12,1.85.48,2,1.51-1.23.16-2.46.74-3.7,0Z" transform="translate(-4 -25)"/>
      <path class="cls-9" d="M284.19,240.21c-1.16,1-2.42,0-1.17-1Z" transform="translate(-4 -25)"/>
      <path class="cls-10" d="M279.59,234l-.71.4C277.64,233.11,279.61,232,279.59,234Z" transform="translate(-4 -25)"/>
      <path class="cls-10" d="M239.33,236.15l-.45.75c-.55-.58-.42-1,.15-1.44Z" transform="translate(-4 -25)"/>
      <path class="cls-9" d="M130.48,180l-.46.32c-.28-.42-.48-.67.13-.91Z" transform="translate(-4 -25)"/>
      <path class="cls-11" d="M136.17,198.15c-.25.42-.41.67-.88.26C135.54,198,135.69,197.74,136.17,198.15Z" transform="translate(-4 -25)"/>
      <path class="cls-12" d="M360.43,250.14c.43.24.67.4.29.88C360.29,250.78,360,250.64,360.43,250.14Z" transform="translate(-4 -25)"/>
      <path class="cls-13" d="M169.48,187c2.22-.9,4.06-.59,5.37-2a1.48,1.48,0,0,1,2.26.42C179.68,189.22,171.79,188.5,169.48,187Z" transform="translate(-4 -25)"/>
      <path class="cls-14" d="M244.73,215.43l-2.1,1.94C242.42,215.68,243.36,215.29,244.73,215.43Z" transform="translate(-4 -25)"/>
      <path class="cls-7" d="M221.34,178.89c.48-.43,1.4-.84,1.63,0C222.61,179.24,221.88,179,221.34,178.89Z" transform="translate(-4 -25)"/>
      <path class="cls-15" d="M226,243.51c-.88.52-1.13.71-1.53-.22C225.07,242.72,225.29,243.12,226,243.51Z" transform="translate(-4 -25)"/>
      <path class="cls-16" d="M353.44,248.25c.58.21.64.41.23.87C353.09,248.91,353,248.71,353.44,248.25Z" transform="translate(-4 -25)"/>
    </g>
  </g>
  <g id="hair">
    <path class="cls-17" d="M416,188.5c0,64.89-1.36,76.33-12,79.5-30.28,9-37.41-163.89-102-162-.25,0-88.95,105.68-127.67,120.48-2.81,1.08-40.86,23.67-40.86,23.67-.23.79-.38,1.45-.47,1.85-1.45,11.45-3.86,24.61-7.68,24.83-7.47.43-19.32-48.51-19.32-88.33C106,98.2,175.4,25,261,25S416,98.2,416,188.5Z" transform="translate(-4 -25)"/>
    <path class="cls-18" d="M-21.39,124.31" transform="translate(-4 -25)"/>
    <path class="cls-18" d="M0,145" transform="translate(-4 -25)"/>
    <path class="cls-18" d="M0,142.5" transform="translate(-4 -25)"/>
    <path class="cls-18" d="M21.39,163.19" transform="translate(-4 -25)"/>
  </g>
  <g id="nose">
    <path class="cls-19" d="M261.05,221.37s-34,30.25-12.42,37.72" transform="translate(-4 -25)"/>
  </g>
  <g id="mouth">
    <path class="cls-19" d="M284.3,328c17.7-16,23.05-35,61.88-41" transform="translate(-4 -25)"/>
  </g>
</svg>
